<svg width="32" height="32" viewBox="0 0 32 32" fill="none" xmlns="http://www.w3.org/2000/svg">
<path d="M30.368 0H1.63201C1.19917 0 0.784051 0.171956 0.47799 0.478017C0.171929 0.784078 0 1.1992 0 1.63203V15.3147C0 15.7476 0.171929 16.1627 0.47799 16.4688C0.784051 16.7748 1.19917 16.9467 1.63201 16.9467H7.52889V30.368C7.52889 30.8008 7.70082 31.2159 8.00688 31.522C8.31294 31.828 8.72806 32 9.1609 32H22.8436C23.0577 32 23.2697 31.9578 23.4675 31.8757C23.6652 31.7936 23.8449 31.6733 23.996 31.5217C24.1472 31.3701 24.267 31.1902 24.3485 30.9922C24.43 30.7942 24.4717 30.5821 24.4711 30.368V16.9467H30.368C30.8008 16.9467 31.2159 16.7748 31.522 16.4688C31.8281 16.1627 32 15.7476 32 15.3147V1.63203C32 1.1992 31.8281 0.784078 31.522 0.478017C31.2159 0.171956 30.8008 0 30.368 0V0ZM1.8935 1.8935H15.0533V15.0533H1.8935V1.8935ZM22.5821 30.1065H9.41787V16.9467H22.5821V30.1065ZM30.1155 15.0533H16.9467V1.8935H30.1155V15.0533Z" fill="black"/>
<path d="M10.9398 10.0263C11.0287 10.1076 11.134 10.172 11.2499 10.2156C11.3658 10.2593 11.4899 10.2816 11.6151 10.281C11.7397 10.2817 11.8631 10.2595 11.9783 10.2158C12.0935 10.1721 12.198 10.1077 12.2859 10.0263C12.3763 9.94473 12.4482 9.84732 12.4972 9.7398C12.5463 9.63229 12.5715 9.51684 12.5715 9.40022C12.5715 9.2836 12.5463 9.16817 12.4972 9.06065C12.4482 8.95314 12.3763 8.8557 12.2859 8.77409L9.24931 5.97738C9.16069 5.89408 9.05493 5.82789 8.93819 5.78271C8.82146 5.73753 8.69611 5.71428 8.56949 5.71428C8.44287 5.71428 8.31754 5.73753 8.20081 5.78271C8.08407 5.82789 7.97828 5.89408 7.88966 5.97738L4.85313 8.77409C4.67283 8.94015 4.57153 9.16537 4.57153 9.40022C4.57153 9.63506 4.67283 9.86029 4.85313 10.0263C5.03343 10.1924 5.27797 10.2857 5.53296 10.2857C5.78794 10.2857 6.03248 10.1924 6.21278 10.0263L8.57856 7.84742L10.9398 10.0263Z" fill="black"/>
<path d="M21.0516 10.0228L23.4174 7.84568L25.7832 10.0228C25.8718 10.1061 25.9775 10.1722 26.0943 10.2173C26.211 10.2625 26.3364 10.2857 26.463 10.2857C26.5896 10.2857 26.715 10.2625 26.8317 10.2173C26.9484 10.1722 27.0542 10.1061 27.1428 10.0228C27.2332 9.94127 27.3051 9.84394 27.3542 9.73651C27.4032 9.62908 27.4285 9.51372 27.4285 9.3972C27.4285 9.28067 27.4032 9.16534 27.3542 9.05792C27.3051 8.95049 27.2332 8.85313 27.1428 8.77158L24.1062 5.97717C24.0176 5.89394 23.9119 5.8278 23.7951 5.78266C23.6784 5.73751 23.553 5.71428 23.4264 5.71428C23.2998 5.71428 23.1745 5.73751 23.0577 5.78266C22.941 5.8278 22.8352 5.89394 22.7466 5.97717L19.7101 8.77158C19.5298 8.9375 19.4285 9.16255 19.4285 9.3972C19.4285 9.63185 19.5298 9.85689 19.7101 10.0228C19.8904 10.1887 20.1349 10.282 20.3899 10.282C20.6449 10.282 20.8894 10.1887 21.0697 10.0228H21.0516Z" fill="black"/>
<path d="M13.304 21.9735C13.098 21.8075 12.8185 21.7143 12.5271 21.7143C12.2357 21.7143 11.9563 21.8075 11.7502 21.9735C11.5442 22.1395 11.4285 22.3647 11.4285 22.5994C11.4285 22.8342 11.5442 23.0593 11.7502 23.2253L15.2256 26.0209C15.3265 26.1047 15.4473 26.1713 15.5807 26.2168C15.7142 26.2623 15.8576 26.2857 16.0025 26.2857C16.1474 26.2857 16.2908 26.2623 16.4243 26.2168C16.5577 26.1713 16.6785 26.1047 16.7794 26.0209L20.2495 23.2253C20.4556 23.0593 20.5713 22.8342 20.5713 22.5994C20.5713 22.3647 20.4556 22.1395 20.2495 21.9735C20.0435 21.8075 19.764 21.7143 19.4726 21.7143C19.1812 21.7143 18.9018 21.8075 18.6957 21.9735L16.0077 24.1349L13.304 21.9735Z" fill="black"/>
</svg>
